<svg id="Layer_5" enable-background="new 0 0 64 64" height="512" viewBox="0 0 64 64" width="512" xmlns="http://www.w3.org/2000/svg"><g><g><g><path d="m62 20h-56v-10c0-1.105.895-2 2-2h52c1.105 0 2 .895 2 2z" fill="#5cd6b3"/></g><g><path d="m6 20v34c0 1.1.9 2 2 2h52c1.1 0 2-.9 2-2v-34z" fill="#e6e9ed"/></g><g><path d="m26 38h32v10h-32z" fill="#4fc1e9"/></g><g><path d="m26 12h4v4h-4z" fill="#e6e9ed"/></g><g><path d="m18 12h4v4h-4z" fill="#e6e9ed"/></g><g><path d="m10 12h4v4h-4z" fill="#e6e9ed"/></g><g><path d="m48 24h10v6h-10z" fill="#fcd770"/></g><g><path d="m34 24h10v6h-10z" fill="#fcd770"/></g><g><path d="m20 24h10v6h-10z" fill="#fcd770"/></g><g><path d="m14 34 8 9-8 9-2.99-2.66 2.97-3.34h-7.98-4v-6h4 7.98l-2.97-3.34z" fill="#ff826e"/></g></g><g><path d="m60 7h-52c-1.654 0-3 1.346-3 3v29h-4v8h4v7c0 1.654 1.346 3 3 3h52c1.654 0 3-1.346 3-3v-44c0-1.654-1.346-3-3-3zm-52 2h52c.551 0 1 .449 1 1v9h-54v-9c0-.551.449-1 1-1zm-5 32h13.208l-3.786-4.26 1.495-1.328 6.745 7.588-6.745 7.588-1.495-1.328 3.786-4.26h-13.208zm57 14h-52c-.551 0-1-.448-1-1v-7h4.755l-2.156 2.426 4.484 3.986 9.255-10.412-9.255-10.412-4.484 3.986 2.156 2.426h-4.755v-18h54v33c0 .552-.449 1-1 1z"/><path d="m15 11h-6v6h6zm-2 4h-2v-2h2z"/><path d="m23 11h-6v6h6zm-2 4h-2v-2h2z"/><path d="m31 11h-6v6h6zm-2 4h-2v-2h2z"/><path d="m25 49h34v-12h-34zm2-10h30v8h-30z"/><path d="m57 51h2v2h-2z"/><path d="m33 51h22v2h-22z"/><path d="m25 51h2v2h-2z"/><path d="m29 51h2v2h-2z"/><path d="m47 31h12v-8h-12zm2-6h8v4h-8z"/><path d="m45 23h-12v8h12zm-2 6h-8v-4h8z"/><path d="m31 23h-12v8h12zm-2 6h-8v-4h8z"/><path d="m9 23h8v2h-8z"/><path d="m9 27h8v2h-8z"/><path d="m25 33h2v2h-2z"/><path d="m29 33h30v2h-30z"/></g></g></svg>